<?xml version="1.0" encoding="utf-8"?>

<!-- Uploaded to: SVG Repo, www.svgrepo.com, Generator: SVG Repo Mixer Tools -->
<svg version="1.1" id="Icons" xmlns="http://www.w3.org/2000/svg" xmlns:xlink="http://www.w3.org/1999/xlink" 
	 viewBox="0 0 32 32" xml:space="preserve">
<style type="text/css">
	.st0{fill:none;stroke:#000000;stroke-width:2;stroke-linecap:round;stroke-linejoin:round;stroke-miterlimit:10;}
	
		.st1{fill:none;stroke:#000000;stroke-width:2;stroke-linecap:round;stroke-linejoin:round;stroke-miterlimit:10;stroke-dasharray:3;}
	.st2{fill:none;stroke:#000000;stroke-width:2;stroke-linejoin:round;stroke-miterlimit:10;}
	.st3{fill:none;}
</style>
<path class="st0" d="M29,8l-2,11L9.4,21.8C8.6,21.9,8,22.6,8,23.4v0C8,24.3,8.7,25,9.6,25H27"/>
<path class="st0" d="M5,4L5,4c2.3,0,3.8,2.4,2.8,4.5L7,10l4,11"/>
<line class="st0" x1="3" y1="4" x2="5" y2="4"/>
<circle class="st0" cx="11" cy="27" r="2"/>
<circle class="st0" cx="24" cy="27" r="2"/>
<line class="st0" x1="23" y1="10" x2="28" y2="10"/>
<line class="st0" x1="7" y1="10" x2="13" y2="10"/>
<g>
	<path class="st2" d="M22.2,8.7c-0.5,0.9-1.3,1.4-2.4,1.5c-0.6,0.1-1-0.3-1-0.8c-0.1-1.1-0.1-2.2-0.3-3.3c-0.2-1.2-0.8-2.2-1.6-3.1
		c0,0-0.1,0-0.1,0.1c-0.5,1.3-1.4,2.4-2.2,3.6c-1.1,1.4-1.6,3-1.6,4.8c0.1,2.4,2.4,4.6,5,4.5c2.4,0,4.5-1.7,4.9-3.9
		c0.3-1.2,0.1-2.7-0.4-3.8C22.4,8.5,22.3,8.6,22.2,8.7z"/>
</g>
<rect x="-432" class="st3" width="536" height="680"/>
</svg>