<svg version="1.1" id="Layer_1" xmlns="http://www.w3.org/2000/svg" xmlns:xlink="http://www.w3.org/1999/xlink" x="0px" y="0px"
	 width="100%" viewBox="0 0 215 215" enable-background="new 0 0 215 215" xml:space="preserve">
<path fill="#000000" opacity="1.000000" stroke="none" 
	d="
M126.000000,216.000000 
	C85.166672,216.000000 44.833214,215.958939 4.500267,216.083817 
	C1.516876,216.093048 0.913236,215.482315 0.917721,212.499893 
	C1.023746,142.000046 1.000000,71.500015 1.000000,1.000010 
	C71.333321,1.000000 141.666702,1.031835 211.999786,0.903577 
	C215.424301,0.897332 216.102905,1.575473 216.096497,5.000147 
	C215.967560,73.999901 215.967560,143.000015 216.096481,211.999771 
	C216.102890,215.424286 215.427277,216.121323 211.999420,216.100082 
	C183.500504,215.923599 155.000015,216.000000 126.000000,216.000000 
z"/>
<path fill="#F3B04C" opacity="1.000000" stroke="none" 
	d="
M87.676102,75.719559 
	C88.584503,81.036133 84.988731,85.204445 85.028534,90.496201 
	C85.778557,91.778114 86.927406,91.486458 88.122231,91.938309 
	C88.835838,91.985855 89.245712,91.992592 89.966751,91.981613 
	C90.485641,91.953629 90.693512,91.934433 91.211716,91.865616 
	C92.851501,91.640572 93.933701,91.054176 94.963791,89.745499 
	C96.362221,89.556236 97.408386,89.109779 98.851212,89.020020 
	C100.328690,89.088333 101.437080,89.024712 102.695885,88.113983 
	C103.462799,87.821327 103.922646,87.727730 104.752701,87.719070 
	C105.809113,87.948746 106.443565,88.300072 107.435432,88.724876 
	C108.946144,90.482574 110.496460,91.445129 112.817474,91.768875 
	C113.120087,91.953514 113.499840,91.984726 113.689728,91.969193 
	C114.078926,91.839622 114.278236,91.725571 114.781204,91.774139 
	C115.084862,91.936760 115.019646,91.958107 115.018845,91.923798 
	C115.396889,92.427406 116.007744,92.485786 116.828545,92.791161 
	C117.085419,92.941147 117.020340,92.962868 117.024864,92.928864 
	C117.211548,93.185272 117.436760,93.437874 117.904594,93.809769 
	C122.077232,95.152603 125.443207,98.738304 130.539948,96.951248 
	C132.002930,98.035889 133.293243,98.662033 135.190567,98.769592 
	C135.704559,99.025719 135.891632,99.166046 136.274384,99.600891 
	C136.594025,100.362709 136.576584,100.826721 136.195999,101.550316 
	C123.648712,103.301262 112.203781,106.935455 102.961823,115.633247 
	C100.627365,117.830261 98.404709,120.492065 98.083832,123.829056 
	C97.717453,127.639252 94.471718,128.390366 92.280846,128.420410 
	C89.560852,128.457687 86.619026,126.805153 86.029663,123.296852 
	C84.375557,113.450455 89.415657,106.112938 99.322037,103.553406 
	C101.567627,102.973213 103.927895,102.313293 105.881775,100.629272 
	C104.405708,99.757568 103.033844,98.947403 101.346115,97.983017 
	C100.984802,97.402168 100.775467,97.257393 100.186172,97.640030 
	C99.247826,97.880089 98.495499,97.926323 97.371346,97.902145 
	C96.126495,97.039650 94.959114,96.975456 93.583549,96.548294 
	C89.891960,96.971199 86.335144,95.412209 83.068832,97.869041 
	C81.896225,99.379044 81.941109,100.832092 81.907181,102.641685 
	C81.375473,103.428078 80.772774,103.735199 80.732086,104.716476 
	C78.681976,116.153732 75.565422,127.034187 71.409470,137.896790 
	C68.139656,141.150635 67.595070,145.260101 66.183777,149.414886 
	C63.831341,152.354340 61.040859,151.927933 58.529778,150.748840 
	C56.610279,149.847534 56.749802,147.884308 58.034340,145.838623 
	C57.470341,145.629578 56.617840,145.970047 55.515095,145.306885 
	C54.582436,144.331161 54.551708,143.420532 54.828560,142.151459 
	C54.979023,141.827103 55.014984,141.417648 55.087914,141.225510 
	C57.480171,138.587738 57.757008,135.155273 59.500572,132.068665 
	C59.827335,131.371185 59.946850,130.947464 60.089153,130.173477 
	C61.590271,124.154648 63.532116,118.594826 64.207169,112.375786 
	C64.118149,111.839905 64.079300,111.671448 64.102898,111.251312 
	C64.763306,110.294441 65.012459,109.482323 64.870911,108.237022 
	C67.217712,98.250259 69.602890,88.588852 71.995438,78.929268 
	C72.996056,74.889412 74.012299,70.853439 75.092468,66.414917 
	C75.263809,65.877899 75.364136,65.741669 75.599174,65.381516 
	C75.760155,64.978287 75.786415,64.798996 75.747810,64.346252 
	C75.396835,62.911198 74.550461,61.875141 75.014664,60.267544 
	C75.947762,58.332081 77.873413,58.778355 79.314056,57.647232 
	C79.872002,57.142368 80.191559,56.855991 80.757401,56.364506 
	C81.433922,56.100147 81.868568,56.045811 82.630341,55.949268 
	C84.220497,56.063847 85.429878,55.973583 86.764557,55.025414 
	C87.050659,54.908211 87.502609,54.997139 87.731506,54.971733 
	C88.122650,54.810596 88.284897,54.674866 88.712921,54.365829 
	C95.136284,53.886879 95.227646,54.130592 91.916382,62.616531 
	C91.492691,63.457012 91.158905,63.914188 91.115173,64.790710 
	C90.244537,67.204849 89.879211,69.441643 89.436867,71.921494 
	C88.736855,72.376411 88.341949,72.569801 87.617790,72.670746 
	C87.330002,72.665909 86.866005,72.540176 86.866005,72.540176 
	C86.866005,72.540176 86.540359,72.578613 86.664780,72.725021 
	C87.469460,73.601845 87.333633,74.572983 87.676102,75.719559 
z"/>
<path fill="#F4B04C" opacity="1.000000" stroke="none" 
	d="
M157.719910,158.178207 
	C157.972183,157.558472 158.140259,157.285873 158.677826,157.028442 
	C160.405594,156.279892 161.696030,154.392807 163.591492,155.950699 
	C165.039047,157.140442 164.963348,158.702438 164.162231,160.666367 
	C157.144348,166.622589 150.446457,172.518875 142.220428,176.416382 
	C137.594864,178.607971 134.105637,179.428833 133.823318,172.044373 
	C133.558228,165.110168 131.967697,158.195969 130.554260,151.356888 
	C130.178970,149.541000 130.208725,147.787796 129.952545,145.587708 
	C130.247635,144.042542 130.545013,142.914902 130.481079,141.735519 
	C129.943527,131.818359 132.258316,122.461823 136.070923,112.991928 
	C136.103592,112.591942 136.225189,112.233383 136.404968,112.174095 
	C139.451248,110.499176 141.091370,107.615585 143.441055,105.457794 
	C146.048538,103.063263 147.754929,103.126785 149.764999,106.074379 
	C151.361099,108.414940 151.752777,110.901703 150.801224,113.650116 
	C150.151581,115.526550 148.873230,117.171982 148.798553,119.604782 
	C149.522461,123.048889 146.927521,125.389748 146.884033,128.720062 
	C144.332565,134.937958 145.763016,141.001877 145.743927,146.967957 
	C145.740356,148.082291 145.985306,149.228241 146.002289,150.787430 
	C146.796539,154.882248 146.789841,158.669403 147.815430,162.648575 
	C148.089523,162.945038 148.026718,162.971176 148.022308,162.937454 
	C148.216354,163.187805 148.442245,163.448090 148.915771,163.821320 
	C149.136032,163.958023 149.063644,163.952332 149.068268,163.916321 
	C150.999954,165.245911 152.253342,163.876266 153.265259,162.617584 
	C154.528152,161.046707 156.134140,159.875580 157.719910,158.178207 
z"/>
<path fill="#F2B14E" opacity="1.000000" stroke="none" 
	d="
M65.260574,148.289978 
	C66.678520,144.704987 66.842987,140.556580 70.779694,138.230728 
	C71.841530,140.408264 69.751320,141.691513 68.928040,143.345078 
	C67.135536,146.945358 69.288605,148.717361 71.901802,148.818512 
	C81.307152,149.182587 90.711655,149.302124 99.046181,143.454712 
	C107.828484,137.293137 111.927147,128.603119 112.852707,118.394577 
	C113.224892,114.289444 113.917007,111.490097 118.390091,110.860474 
	C118.839447,110.797218 119.202461,110.262199 119.659798,110.091393 
	C122.976845,108.852516 126.996468,106.153549 129.732468,108.761467 
	C132.615036,111.509117 131.209900,116.201157 130.449234,120.048500 
	C128.638351,129.207764 123.805984,136.659912 116.804047,142.637589 
	C111.233345,147.393417 104.525352,150.256943 97.407227,152.908081 
	C96.833061,152.691269 96.635551,152.529373 96.114151,152.161224 
	C87.798042,150.614029 79.755974,152.300858 71.740227,151.558731 
	C69.177315,151.321442 66.794609,151.270767 65.260574,148.289978 
z"/>
<path fill="#F3B04C" opacity="1.000000" stroke="none" 
	d="
M107.248360,46.090912 
	C106.955803,46.088814 106.470695,45.982159 106.235802,45.901539 
	C105.000832,44.894505 103.775108,44.984123 102.250946,45.086365 
	C101.497665,45.070862 101.046913,45.024265 100.264694,44.900295 
	C99.471771,44.636490 99.018890,44.431042 98.238815,44.039352 
	C87.191177,42.440166 77.015518,44.063328 67.232681,49.530106 
	C66.593613,49.887554 66.185806,49.944996 65.468781,50.027267 
	C63.937752,50.821983 62.579388,51.015434 60.754036,50.960640 
	C59.478458,50.660835 58.911148,50.079948 58.457279,48.869965 
	C58.417755,48.186401 58.466827,47.911957 58.732986,47.280075 
	C58.950077,46.922634 58.992359,46.984997 58.958374,46.968750 
	C59.413986,46.581726 60.017879,46.512066 60.789577,46.117027 
	C61.001900,45.908932 60.990513,45.975437 60.959122,45.963081 
	C61.417263,45.577763 62.023949,45.512363 62.795372,45.112289 
	C63.008286,44.904106 62.985382,44.967499 62.959557,44.945847 
	C63.422535,44.577374 64.016464,44.513283 64.757095,44.102112 
	C65.142639,43.615170 65.333015,43.344940 65.777878,43.120869 
	C67.666718,43.822971 69.062645,43.028450 70.712280,42.179985 
	C70.933083,41.925892 70.998779,41.999695 70.967003,41.962868 
	C71.706490,41.317398 72.667450,41.603226 73.752258,41.134453 
	C73.984512,40.891006 73.982971,40.959324 73.950722,40.948036 
	C78.068687,40.456966 82.102661,39.013081 86.681412,39.160973 
	C87.001045,38.885429 86.982613,38.957779 86.946701,38.947590 
	C87.119156,38.821507 87.327515,38.705608 87.878014,38.485939 
	C88.670067,38.220253 89.132751,38.118607 89.965454,38.118858 
	C93.645111,39.043423 96.911293,38.035484 100.544479,37.744270 
	C101.355476,37.543850 101.828644,37.522663 102.568176,37.810532 
	C103.945839,40.523376 106.126579,37.369835 107.723366,39.052814 
	C108.519470,39.495331 109.101334,39.488701 109.869125,39.805386 
	C110.105972,39.955818 110.575485,40.022694 110.799942,40.099159 
	C112.750160,41.010880 114.541611,41.588818 116.794846,41.745438 
	C117.104187,41.921356 117.574722,42.013844 117.800476,42.094643 
	C118.203133,42.300034 118.380043,42.424622 118.812691,42.749069 
	C119.068428,42.948929 119.013000,42.991707 119.023094,42.958183 
	C119.205482,43.214256 119.427803,43.458275 119.902679,43.801361 
	C120.105202,43.946014 120.573853,44.016167 120.799988,44.086899 
	C121.203232,44.285702 121.380341,44.413776 121.824417,44.732159 
	C122.369576,45.093285 122.647758,45.264099 123.000885,45.675465 
	C123.429733,46.453331 124.028702,46.484882 124.815422,46.784882 
	C125.062607,46.930660 125.000305,46.998329 125.033112,46.966484 
	C125.441208,47.618465 125.826088,48.293865 126.831757,48.786407 
	C127.089424,48.922810 126.998680,48.992531 127.040337,48.952690 
	C127.614204,49.777855 127.892471,50.789284 128.844604,51.739082 
	C129.085876,51.926872 129.002441,52.001099 129.041931,51.962357 
	C129.704910,52.893829 129.388824,54.207767 130.432678,55.382339 
	C130.707962,55.885780 130.791885,56.101089 130.919708,56.660759 
	C131.035904,59.552227 130.985657,62.099892 130.995636,64.982056 
	C130.987900,65.536163 130.982529,65.755478 130.949509,66.298279 
	C130.797302,67.245667 130.443542,67.796516 130.368347,68.736366 
	C130.366821,69.247330 130.342712,69.450897 130.136292,69.902092 
	C129.963287,70.563637 129.972580,70.977570 129.911835,71.694229 
	C126.300941,76.043938 123.379272,80.614677 119.206970,84.580124 
	C118.988907,84.848221 118.549080,84.994041 118.321548,85.037735 
	C116.186424,85.982292 114.118584,86.535362 112.116631,87.998184 
	C111.680885,88.490601 111.474716,88.714531 111.024078,88.881805 
	C106.028030,87.340332 105.964432,86.333878 110.618835,81.274765 
	C110.914200,80.942810 110.944008,80.969177 110.946251,80.949463 
	C114.139915,77.732819 115.350319,73.492668 116.989380,69.124649 
	C117.011253,67.841789 117.009743,66.906464 117.404190,65.667839 
	C118.073586,63.754715 118.134308,62.150486 117.654633,60.195156 
	C117.405174,59.201160 117.149879,58.562763 117.036255,57.553856 
	C117.036354,55.921970 116.882637,54.657471 116.089447,53.235481 
	C115.837852,52.813210 115.728065,52.653023 115.413818,52.292355 
	C114.908195,51.866337 114.612305,51.634090 114.104088,51.222225 
	C113.536499,51.030140 113.268227,50.872051 113.017090,50.342003 
	C112.103683,48.813801 110.970680,47.882801 109.213638,47.232048 
	C108.942375,47.060284 109.000000,47.000305 108.971451,47.031048 
	C108.591484,46.571121 108.142021,46.222343 107.248360,46.090912 
z"/>
<path fill="#F2B151" opacity="1.000000" stroke="none" 
	d="
M194.846832,113.046989 
	C193.302490,129.035126 183.228760,139.856064 173.393677,151.068604 
	C171.383987,150.864838 170.715515,152.219452 169.868011,153.152466 
	C167.638275,155.607178 165.459106,155.841949 163.177795,152.898193 
	C171.412674,143.830215 179.124329,134.736389 183.324097,123.230820 
	C185.634933,116.900093 187.993195,110.551353 183.530045,104.160149 
	C182.771103,103.073341 183.108139,101.925674 183.102905,100.391998 
	C184.217133,98.906929 185.034454,97.797142 183.360641,96.209442 
	C182.768723,93.978943 182.644409,91.582581 184.764297,90.941933 
	C187.149567,90.221085 189.920990,90.177231 192.522690,92.051651 
	C193.640503,92.703156 193.774979,93.733040 194.610504,94.711090 
	C194.834961,95.260330 194.885559,95.496353 194.958893,96.096771 
	C195.067902,99.938293 194.888077,103.418221 195.177322,107.255066 
	C195.855011,109.355400 195.250656,111.010460 194.846832,113.046989 
z"/>
<path fill="#F2B254" opacity="1.000000" stroke="none" 
	d="
M26.251709,118.971039 
	C22.309334,116.163307 22.052551,112.040939 21.926968,107.429977 
	C21.125418,103.587402 21.625887,100.127579 21.787027,96.277206 
	C21.262192,87.055237 25.911606,80.010246 29.813387,72.808510 
	C32.109219,68.570976 34.406731,64.194443 38.673363,60.954453 
	C40.347111,61.430744 41.974396,60.770653 43.497047,61.996082 
	C44.404335,64.026779 43.192978,65.157928 42.245026,66.762115 
	C42.063377,67.095787 42.023682,67.020790 42.059959,67.042793 
	C41.404739,67.433449 40.703510,67.789551 40.184380,68.767136 
	C37.091125,74.918144 33.051422,80.241325 31.026720,86.647232 
	C30.436169,88.515663 29.812969,90.286697 29.909298,92.669113 
	C29.684687,93.251968 29.547899,93.422943 29.184158,93.831322 
	C28.957201,94.068726 28.966251,93.953896 29.023750,93.957153 
	C27.842684,97.656540 28.757727,101.451065 28.791618,105.536079 
	C30.858391,107.617317 30.396191,110.342346 31.789820,112.654373 
	C28.681870,113.706604 27.713743,116.360405 26.251709,118.971039 
z"/>
<path fill="#F3B047" opacity="1.000000" stroke="none" 
	d="
M26.089664,119.423523 
	C26.259281,117.357445 26.562565,115.615646 26.889935,113.878372 
	C27.564573,110.298256 29.236780,110.819901 31.542948,112.923271 
	C32.178600,113.477310 32.532181,113.935524 32.985909,114.670120 
	C32.483135,115.503418 31.925989,116.109215 31.288744,116.629486 
	C31.758183,116.238960 32.188225,115.806763 32.835552,115.143906 
	C36.869633,115.498611 39.248871,118.450912 41.969170,120.663353 
	C44.303726,122.562065 44.971268,125.557228 42.904648,128.130600 
	C40.934689,130.583633 37.633335,130.920212 35.295002,129.536972 
	C31.437456,127.255058 27.553862,124.571617 26.089664,119.423523 
z"/>
<path fill="#F4B04C" opacity="1.000000" stroke="none" 
	d="
M163.282043,96.721268 
	C159.815552,101.189728 155.408600,104.453270 153.393738,109.886894 
	C151.491089,110.809570 150.860733,109.490540 150.632828,108.546425 
	C149.980225,105.842712 147.850174,104.319885 146.099991,102.038948 
	C145.916565,101.174355 145.949173,100.671364 146.240540,99.820480 
	C149.420013,95.846016 153.107895,93.473839 157.862534,92.642723 
	C159.627182,92.334259 161.044174,92.349907 162.746994,93.649567 
	C163.055450,93.885094 163.113632,93.896774 163.111404,93.926369 
	C163.555618,94.706436 163.529755,95.528503 163.282043,96.721268 
z"/>
<path fill="#EBB461" opacity="1.000000" stroke="none" 
	d="
M54.647144,141.976868 
	C55.261169,142.650055 55.543316,143.473007 55.880306,144.617371 
	C54.585701,150.314011 52.613342,151.308380 44.394527,150.824173 
	C49.579346,151.389038 54.796089,148.931290 59.993908,150.988663 
	C61.113457,151.431808 62.289017,151.475311 61.812489,153.263870 
	C57.269669,153.582520 53.074791,153.417084 48.484283,153.686859 
	C45.859379,154.212418 43.625263,154.560333 41.406940,154.989822 
	C39.066212,155.443024 37.346340,154.320038 37.187157,152.241470 
	C37.040215,150.322784 38.797695,149.146942 40.786541,148.972717 
	C46.223171,148.496536 51.148842,147.064743 54.647144,141.976868 
z"/>
<path fill="#F3B04C" opacity="1.000000" stroke="none" 
	d="
M163.034653,93.513519 
	C157.891266,92.951241 153.202271,93.213371 150.189560,98.481316 
	C149.780151,99.197227 148.519760,99.426460 147.300079,99.951782 
	C146.765518,100.152176 146.584244,100.281822 146.071320,100.389420 
	C144.406830,99.326157 143.096588,99.473305 141.462952,100.531746 
	C139.652145,101.057343 138.184708,101.183548 136.415497,100.334106 
	C136.103226,100.108505 136.042175,100.045517 136.011597,100.014061 
	C135.301865,99.295776 134.570908,98.637520 134.795074,97.216782 
	C142.864029,93.760635 151.768585,94.974274 159.585648,91.250381 
	C160.549927,90.791023 162.415024,91.498703 163.034653,93.513519 
z"/>
<path fill="#F3B04C" opacity="1.000000" stroke="none" 
	d="
M146.684479,101.833870 
	C151.918854,102.257919 151.033981,106.827652 152.833282,109.816299 
	C151.770767,113.135193 150.470139,116.226311 149.007462,119.645142 
	C147.700333,118.384682 148.116592,116.868774 149.059799,115.378586 
	C149.893631,114.061203 150.077896,112.605385 149.912460,111.098885 
	C149.646942,108.680908 148.686142,106.342728 146.526184,105.384941 
	C144.496292,104.484818 144.087311,107.492073 142.469986,108.127274 
	C140.292526,108.982475 140.678268,113.146011 136.861847,112.219467 
	C138.250214,108.637703 141.020294,106.104698 144.008392,103.293701 
	C144.761795,102.282127 145.352676,101.595963 146.684479,101.833870 
z"/>
<path fill="#F3B04C" opacity="1.000000" stroke="none" 
	d="
M135.827850,112.780777 
	C137.083923,114.267334 136.472977,115.707451 135.560364,117.198288 
	C134.967972,118.165985 134.121262,119.378311 134.275391,120.338699 
	C135.406784,127.388824 130.356186,133.693130 131.941360,140.788406 
	C132.252518,142.181183 132.096741,143.794403 130.270767,144.971466 
	C129.917831,145.161148 129.849991,145.114136 129.867188,145.076614 
	C129.059570,140.244995 129.662064,135.418396 129.813599,130.199310 
	C130.254623,123.648109 132.948898,118.323700 135.827850,112.780777 
z"/>
<path fill="#F3B14E" opacity="1.000000" stroke="none" 
	d="
M67.370888,49.786686 
	C67.281494,49.079411 67.374306,47.839771 67.869278,47.650208 
	C77.769493,43.858620 87.620064,39.533592 98.810806,43.387329 
	C95.719467,45.408978 92.183403,44.027683 88.386635,44.684944 
	C80.865273,44.974483 74.201965,46.943890 67.370888,49.786686 
z"/>
<path fill="#F3B14E" opacity="1.000000" stroke="none" 
	d="
M58.681595,47.772118 
	C59.251621,48.507504 59.510284,49.012867 59.893990,49.773087 
	C61.444599,51.993362 59.389332,52.511486 58.317909,53.820847 
	C58.076649,54.102695 57.995991,54.018070 58.042286,54.053078 
	C56.964317,54.790913 55.639900,55.027916 54.261398,55.887772 
	C54.026039,56.474140 53.872360,56.733646 53.359795,56.975624 
	C52.114582,57.724213 50.746365,57.962418 50.088627,59.576691 
	C49.950603,59.859447 49.543457,59.990051 49.331215,60.015709 
	C48.262066,60.548901 47.291752,60.831711 46.086166,61.465736 
	C45.464851,61.494663 45.215019,61.442284 44.661819,61.152882 
	C43.884838,60.275398 43.672039,59.554337 43.759033,58.390209 
	C47.217373,53.749050 51.926834,51.206089 56.703728,48.152615 
	C56.971928,47.905289 56.986973,47.972263 56.955635,47.958267 
	C57.352375,47.616432 57.834354,47.482368 58.681595,47.772118 
z"/>
<path fill="#EBB461" opacity="1.000000" stroke="none" 
	d="
M61.164551,131.717010 
	C58.294155,134.342255 58.763233,138.568665 55.475338,140.908966 
	C58.995079,131.885605 61.265854,122.261322 63.974495,112.361610 
	C65.830452,114.447266 64.460052,116.826958 63.932350,119.175858 
	C63.099579,122.882713 62.083412,126.548355 61.071991,130.615967 
	C61.124577,131.164001 61.250050,131.327515 61.164551,131.717010 
z"/>
<path fill="#F3B14E" opacity="1.000000" stroke="none" 
	d="
M119.334244,84.832748 
	C121.417870,79.825943 124.876053,75.622520 129.498047,72.034248 
	C128.098099,77.573296 123.735046,81.073380 119.334244,84.832748 
z"/>
<path fill="#F0B55A" opacity="1.000000" stroke="none" 
	d="
M56.604263,47.947651 
	C53.909386,52.022411 48.786335,53.687836 45.249119,57.762161 
	C44.363628,58.565411 43.631405,58.732277 42.477158,58.290337 
	C46.095608,53.660805 50.758362,50.255405 56.604263,47.947651 
z"/>
<path fill="#F3B14E" opacity="1.000000" stroke="none" 
	d="
M110.570679,80.959373 
	C111.251747,83.458366 106.124138,85.438133 110.485321,88.572227 
	C109.662193,91.156357 112.070023,90.607689 112.992233,91.665314 
	C111.126869,91.898354 108.996666,92.416191 107.207245,90.295578 
	C106.123047,89.245605 105.819672,88.141953 105.088730,86.567093 
	C106.499580,84.066597 107.824989,81.945419 110.570679,80.959373 
z"/>
<path fill="#E8B35E" opacity="1.000000" stroke="none" 
	d="
M77.184486,65.741058 
	C76.581657,65.993279 76.176468,65.999504 75.467392,66.009926 
	C75.468903,63.807758 74.107727,62.664783 72.328201,62.111195 
	C70.316193,61.485283 69.778450,60.144089 70.045364,58.340782 
	C70.407845,55.891739 72.447906,56.995392 73.602615,57.102463 
	C74.906174,57.223331 75.973434,55.796406 77.609329,56.821045 
	C78.083336,57.072353 78.202538,57.256557 78.287537,57.767212 
	C77.806175,58.930592 76.781586,58.923317 76.050171,59.810951 
	C76.188896,61.514660 76.446899,62.926453 76.848595,64.668480 
	C77.122238,65.164162 77.252182,65.329613 77.184486,65.741058 
z"/>
<path fill="#E7C796" opacity="1.000000" stroke="none" 
	d="
M145.303833,152.075043 
	C145.066574,146.030350 144.976227,140.282303 145.056107,134.536606 
	C145.080093,132.812042 144.550354,130.870590 146.462402,129.274017 
	C145.512192,136.450912 145.857361,143.774445 146.873398,151.524292 
	C146.454651,152.330231 146.023361,152.469345 145.303833,152.075043 
z"/>
<path fill="#F8AF40" opacity="1.000000" stroke="none" 
	d="
M163.175598,152.565750 
	C165.988724,153.739807 168.521149,154.019760 170.267685,150.717102 
	C170.849274,149.617340 171.894089,148.933685 172.944733,150.842667 
	C171.392136,152.882065 169.751419,154.639267 167.971222,156.700439 
	C164.153656,158.675980 163.375183,156.397629 163.105896,153.022247 
	C163.158157,152.547653 163.193100,152.582703 163.175598,152.565750 
z"/>
<path fill="#EBB461" opacity="1.000000" stroke="none" 
	d="
M96.641876,151.667389 
	C96.997269,151.953476 97.013458,152.403351 97.022018,152.628265 
	C94.760857,153.776337 92.425064,154.291153 89.546722,153.994629 
	C86.787285,155.052933 84.318916,154.281296 81.471649,154.348022 
	C80.004242,152.365341 80.951195,151.023346 82.655396,151.197128 
	C87.210754,151.661636 91.767159,150.249649 96.641876,151.667389 
z"/>
<path fill="#EBB461" opacity="1.000000" stroke="none" 
	d="
M76.224876,154.465500 
	C72.464661,155.870193 69.214211,153.635818 65.314461,153.903275 
	C64.777016,153.558670 64.671448,153.284927 64.654343,152.579727 
	C68.579193,150.053299 72.363869,150.346024 76.281464,152.801346 
	C76.454506,153.502563 76.456627,153.796844 76.224876,154.465500 
z"/>
<path fill="#F2B151" opacity="1.000000" stroke="none" 
	d="
M162.912979,152.724411 
	C164.128113,154.308868 164.333191,156.751694 167.451126,156.971191 
	C167.443604,158.807251 165.661835,159.468277 164.418274,160.929855 
	C162.888565,159.346313 163.958237,155.118210 159.237656,156.922913 
	C160.166565,155.608795 161.417191,154.254974 162.912979,152.724411 
z"/>
<path fill="#F2B151" opacity="1.000000" stroke="none" 
	d="
M157.586502,157.947540 
	C156.929749,161.265640 154.119354,163.172073 151.769501,165.401855 
	C150.712234,166.405106 149.303970,166.745529 149.072296,164.182388 
	C152.711319,163.183929 154.020599,159.262939 157.586502,157.947540 
z"/>
<path fill="#F3B14E" opacity="1.000000" stroke="none" 
	d="
M117.594307,68.648163 
	C116.735245,73.277176 115.354271,77.637680 111.280548,80.845230 
	C112.635353,77.214310 114.322212,73.498863 116.110596,69.420120 
	C116.480888,68.684731 116.849464,68.508652 117.594307,68.648163 
z"/>
<path fill="#FFF2DC" opacity="1.000000" stroke="none" 
	d="
M195.192169,113.161644 
	C193.184311,111.869019 194.890121,110.251793 194.668869,108.321625 
	C194.277512,103.890717 194.653839,99.803917 194.273483,95.326920 
	C194.096466,94.926865 194.047806,95.010414 194.085495,94.980080 
	C193.639038,94.601578 193.456131,94.135269 193.795135,93.210281 
	C195.203949,93.512032 196.109192,94.267838 196.013779,95.850639 
	C195.671356,101.531868 196.552979,107.244507 195.192169,113.161644 
z"/>
<path fill="#F4B04C" opacity="1.000000" stroke="none" 
	d="
M134.634369,96.936462 
	C135.262924,97.707626 135.570190,98.522743 135.929230,99.660233 
	C133.408173,99.982605 130.835312,99.982605 128.049789,99.982605 
	C128.103607,98.479927 130.648636,99.102875 130.843048,97.221390 
	C130.930069,96.917168 130.956772,96.974800 130.926971,96.963623 
	C131.078201,96.820679 131.259201,96.688904 131.714203,96.362930 
	C132.763153,96.439301 133.538101,96.709862 134.634369,96.936462 
z"/>
<path fill="#F2B151" opacity="1.000000" stroke="none" 
	d="
M145.136658,152.201477 
	C145.472336,151.827087 145.852966,151.876678 146.521729,151.940735 
	C147.673477,155.271683 148.339706,158.611603 148.050049,162.507355 
	C145.431702,162.120148 146.209930,159.854340 145.981918,157.987244 
	C145.762939,156.194138 145.452118,154.412247 145.136658,152.201477 
z"/>
<path fill="#F2C983" opacity="1.000000" stroke="none" 
	d="
M146.978806,101.666046 
	C146.241882,102.293518 145.503998,102.592094 144.468506,102.929482 
	C144.120987,101.153099 142.779083,100.408516 141.569016,101.186798 
	C139.950348,102.227875 138.384842,101.785240 136.371887,101.876274 
	C135.980896,101.432533 136.007355,101.052322 136.068512,100.390312 
	C137.787994,100.038589 139.472778,99.968674 141.579620,99.852119 
	C143.012451,99.012459 144.099899,98.824142 145.640854,99.644028 
	C145.998810,99.898659 146.471848,99.971687 146.709320,99.997116 
	C146.957138,100.460739 146.967484,100.898941 146.978806,101.666046 
z"/>
<path fill="#FCAD39" opacity="1.000000" stroke="none" 
	d="
M183.092758,96.378235 
	C184.264771,95.081726 185.366257,94.183449 186.467728,93.285179 
	C186.949097,96.121208 186.960632,98.670174 183.517975,99.956116 
	C183.122833,98.920273 183.072540,97.848381 183.092758,96.378235 
z"/>
<path fill="#F2B241" opacity="1.000000" stroke="none" 
	d="
M42.078121,58.265594 
	C42.860447,58.048271 43.571915,58.029228 44.638828,57.995552 
	C45.001842,58.740658 45.009415,59.500401 45.020782,60.639702 
	C45.133530,61.230793 45.242493,61.442318 45.171730,61.962204 
	C44.553329,62.479233 44.095383,62.550613 43.321648,62.260841 
	C41.615108,62.706844 40.267834,63.011318 39.140945,61.075119 
	C38.990978,60.472126 39.137867,60.224407 39.645683,60.007431 
	C40.366184,59.581799 40.980679,59.516064 41.753338,59.106770 
	C41.955254,58.881767 42.007267,58.463875 42.078121,58.265594 
z"/>
<path fill="#F3B14E" opacity="1.000000" stroke="none" 
	d="
M100.328552,89.991852 
	C98.614265,89.999733 97.228973,90.002693 95.428123,90.006180 
	C94.858849,89.868690 94.705132,89.730675 94.769798,89.372803 
	C98.052116,88.104897 101.116058,87.056847 104.555473,85.968201 
	C104.930946,85.927612 105.040726,86.058289 105.095291,86.123901 
	C105.667992,86.861435 105.779892,87.597473 105.241760,88.693474 
	C104.544083,88.994125 104.102676,88.996964 103.330215,89.002342 
	C102.387764,89.735519 101.573082,89.981461 100.328552,89.991852 
z"/>
<path fill="#FCE6BF" opacity="1.000000" stroke="none" 
	d="
M130.330048,69.971649 
	C129.923706,69.943253 129.893433,69.736801 129.816620,69.220840 
	C129.576782,68.460869 129.528351,67.993256 129.874039,67.272224 
	C130.143814,67.033539 130.081818,67.004395 130.074387,67.037827 
	C130.956512,63.630512 130.327103,60.133686 130.243286,56.318260 
	C130.035385,55.971832 130.003555,56.004711 130.024536,55.994179 
	C129.625244,55.608681 129.467270,55.144455 129.785736,54.264435 
	C133.933182,59.058411 132.141693,64.433922 130.330048,69.971649 
z"/>
<path fill="#FFF3D1" opacity="1.000000" stroke="none" 
	d="
M90.432587,39.018761 
	C89.569252,39.033474 89.126320,39.039658 88.352188,39.018620 
	C87.867043,38.856441 87.713097,38.721485 87.679169,38.303871 
	C92.641998,35.783401 97.703621,37.446934 102.744247,37.620583 
	C102.392494,38.072861 101.953903,38.092468 101.197411,38.198631 
	C97.545380,38.638229 94.225426,39.187145 90.432587,39.018761 
z"/>
<path fill="#FAD8A6" opacity="1.000000" stroke="none" 
	d="
M117.898254,68.398735 
	C117.512589,68.847504 117.140327,68.899620 116.490097,69.004272 
	C116.134293,65.301117 118.203590,61.516666 116.125656,57.378265 
	C116.570122,56.636066 117.007111,56.521751 117.707474,56.920319 
	C117.991440,57.953266 118.068947,58.690868 118.218773,59.792526 
	C118.642441,61.445507 118.462242,62.759319 118.387947,64.447540 
	C118.171806,65.887993 118.041733,66.945030 117.898254,68.398735 
z"/>
<path fill="#F3D9A9" opacity="1.000000" stroke="none" 
	d="
M64.625504,152.841003 
	C64.930862,153.129608 64.900826,153.480484 64.891701,153.656448 
	C59.587521,153.879868 54.292461,153.927322 48.541977,153.901703 
	C52.324806,152.135468 56.750408,153.382767 61.531971,152.956726 
	C62.681324,152.232224 63.476238,152.233810 64.625504,152.841003 
z"/>
<path fill="#F3B14E" opacity="1.000000" stroke="none" 
	d="
M86.617393,38.934914 
	C83.119270,40.655128 78.999069,41.028244 74.361649,40.952160 
	C77.811272,38.946873 81.947975,38.495464 86.617393,38.934914 
z"/>
<path fill="#F3B14E" opacity="1.000000" stroke="none" 
	d="
M117.932167,56.811852 
	C117.531807,57.155487 117.149673,57.095318 116.478790,57.001537 
	C115.454643,55.236343 114.719254,53.504757 113.935448,51.410896 
	C114.664810,51.033531 115.442589,51.018436 116.611061,51.002434 
	C117.317978,52.803696 117.634186,54.605873 117.932167,56.811852 
z"/>
<path fill="#FFEFB8" opacity="1.000000" stroke="none" 
	d="
M129.671371,130.005493 
	C130.052856,134.564011 130.034317,139.337357 129.950073,144.574890 
	C128.022614,140.168060 129.247162,135.169357 129.671371,130.005493 
z"/>
<path fill="#F0B55A" opacity="1.000000" stroke="none" 
	d="
M58.436630,54.055893 
	C58.660587,52.952122 59.244526,51.801544 59.923752,50.339455 
	C61.446751,50.023998 62.874462,50.020058 64.730881,50.034107 
	C63.927990,52.801289 60.468742,51.968327 58.436630,54.055893 
z"/>
<path fill="#FFD080" opacity="1.000000" stroke="none" 
	d="
M83.368919,98.010513 
	C82.015533,96.013954 83.685570,96.023445 84.974846,95.991241 
	C87.626030,95.925049 90.281227,96.020287 93.380325,96.060532 
	C93.995705,96.222382 94.165520,96.372803 94.110550,96.778671 
	C90.508774,97.313385 87.022987,96.176437 83.368919,98.010513 
z"/>
<path fill="#FBD59C" opacity="1.000000" stroke="none" 
	d="
M76.449020,154.916412 
	C75.991005,154.839890 75.997169,154.353195 75.995453,154.109833 
	C77.230949,152.473038 78.658104,152.453476 80.568733,153.574219 
	C83.362930,153.897491 85.791260,153.931107 88.677292,153.978256 
	C85.215363,156.235199 80.960335,154.382126 76.449020,154.916412 
z"/>
<path fill="#F4B04C" opacity="1.000000" stroke="none" 
	d="
M80.968231,104.737328 
	C79.651688,104.925308 78.890602,106.966507 77.509201,105.736610 
	C77.259048,105.513893 77.219048,104.785133 77.378311,104.418808 
	C78.110031,102.735733 79.705894,103.120453 81.460526,103.002640 
	C81.587440,103.488983 81.336067,103.977142 80.968231,104.737328 
z"/>
<path fill="#F4B04C" opacity="1.000000" stroke="none" 
	d="
M94.716385,89.132622 
	C94.988174,89.152946 94.998703,89.579788 95.005630,89.793251 
	C94.840454,92.145752 95.048149,94.675049 91.265884,93.177628 
	C90.381264,91.430428 91.958878,91.164940 92.822037,90.132996 
	C93.554192,89.670250 93.999397,89.391273 94.716385,89.132622 
z"/>
<path fill="#FAE3B0" opacity="1.000000" stroke="none" 
	d="
M28.998806,105.428436 
	C27.255392,102.175049 27.523890,98.378639 28.784672,94.255135 
	C29.048269,97.633553 29.015289,101.306679 28.998806,105.428436 
z"/>
<path fill="#FFF3D1" opacity="1.000000" stroke="none" 
	d="
M88.429253,44.905018 
	C91.206116,43.052044 94.739365,44.247478 98.556435,43.759781 
	C99.250244,43.925140 99.482681,44.152611 99.817520,44.608299 
	C96.251221,44.876358 92.569221,44.929798 88.429253,44.905018 
z"/>
<path fill="#FFF3D1" opacity="1.000000" stroke="none" 
	d="
M21.632000,96.063393 
	C22.013447,99.278297 22.002943,102.687492 21.928532,106.553070 
	C20.060438,103.518250 21.246382,99.853333 21.632000,96.063393 
z"/>
<path fill="#F3B14E" opacity="1.000000" stroke="none" 
	d="
M112.258759,88.158653 
	C113.024124,86.043427 114.765335,84.842659 117.715317,85.064064 
	C116.871643,87.173035 114.887360,87.862656 112.258759,88.158653 
z"/>
<path fill="#F4B04C" opacity="1.000000" stroke="none" 
	d="
M87.960541,75.678291 
	C86.644295,75.652908 86.099731,74.839104 86.004982,73.127365 
	C85.980049,72.590530 86.214470,72.227249 86.611984,72.108887 
	C87.474380,72.011154 87.939255,72.031792 88.750938,72.081802 
	C88.838707,73.214249 89.302696,74.535896 87.960541,75.678291 
z"/>
<path fill="#EFB45D" opacity="1.000000" stroke="none" 
	d="
M43.001289,62.423088 
	C43.464478,62.038300 43.900898,62.018703 44.665100,61.990532 
	C45.400429,62.385666 45.555885,62.870258 45.255539,63.782017 
	C44.248329,65.043938 43.444855,65.959549 42.352379,66.985474 
	C42.367096,65.659950 42.670811,64.224113 43.001289,62.423088 
z"/>
<path fill="#F3B14E" opacity="1.000000" stroke="none" 
	d="
M109.063812,47.372185 
	C110.713020,47.054466 112.580109,46.883076 112.926567,49.737846 
	C111.084801,50.250870 110.261703,48.770767 109.063812,47.372185 
z"/>
<path fill="#F3B14E" opacity="1.000000" stroke="none" 
	d="
M70.563072,41.960320 
	C70.206917,44.382504 68.482567,44.148071 66.323700,43.347309 
	C67.419266,42.776268 68.806168,42.385506 70.563072,41.960320 
z"/>
<path fill="#F3B14E" opacity="1.000000" stroke="none" 
	d="
M116.934158,41.586258 
	C115.145729,41.926132 113.090088,42.388264 111.254959,40.451569 
	C113.145615,39.424236 114.784294,41.248001 116.934158,41.586258 
z"/>
<path fill="#F3B14E" opacity="1.000000" stroke="none" 
	d="
M102.127563,45.445251 
	C103.251900,43.996811 104.533127,43.591354 105.875732,45.528358 
	C104.769508,45.804962 103.538101,45.789001 102.127563,45.445251 
z"/>
<path fill="#F4B04C" opacity="1.000000" stroke="none" 
	d="
M86.911865,54.626190 
	C86.178192,56.235287 85.211159,57.319912 83.194275,56.113525 
	C83.791634,54.317505 85.668098,55.272602 86.911865,54.626190 
z"/>
<path fill="#E8B35E" opacity="1.000000" stroke="none" 
	d="
M92.982483,89.676315 
	C92.542023,90.799736 91.975052,91.650238 91.199921,92.734924 
	C90.991745,92.969109 90.499352,92.983856 90.253128,92.990387 
	C89.662880,92.642578 89.504494,92.222862 89.779724,91.448288 
	C91.190483,90.966820 91.399429,89.175720 92.982483,89.676315 
z"/>
<path fill="#F4B04C" opacity="1.000000" stroke="none" 
	d="
M100.257988,97.896706 
	C100.120979,96.923759 100.040283,95.873047 101.114777,95.481926 
	C101.400169,95.378036 101.857101,95.745415 102.235268,95.896416 
	C101.961365,96.409454 101.687469,96.922493 101.221909,97.632172 
	C100.858780,97.872391 100.687302,97.915970 100.257988,97.896706 
z"/>
<path fill="#F0B55A" opacity="1.000000" stroke="none" 
	d="
M50.273975,59.881500 
	C49.185490,57.467804 50.735920,57.157345 52.813282,57.034492 
	C52.288776,57.992649 51.443062,58.948097 50.273975,59.881500 
z"/>
<path fill="#F4B04C" opacity="1.000000" stroke="none" 
	d="
M94.039520,97.362595 
	C93.885757,97.034134 93.863876,96.552086 93.844879,96.312027 
	C94.959251,96.052933 96.082924,96.058418 96.873276,97.529160 
	C96.064102,97.784843 95.128693,97.737946 94.039520,97.362595 
z"/>
<path fill="#F4B04C" opacity="1.000000" stroke="none" 
	d="
M64.521713,108.078484 
	C65.804588,108.908035 66.171059,109.882195 64.443230,110.893761 
	C64.181526,110.081764 64.197708,109.163902 64.521713,108.078484 
z"/>
<path fill="#F0B55A" opacity="1.000000" stroke="none" 
	d="
M54.398617,56.089622 
	C54.703766,54.712345 55.845169,54.068260 57.736000,54.075680 
	C57.463707,55.572144 56.356461,56.232975 54.398617,56.089622 
z"/>
<path fill="#F4B04C" opacity="1.000000" stroke="none" 
	d="
M78.319229,58.238575 
	C77.984512,57.801716 77.983109,57.618969 77.972923,57.162186 
	C78.417358,55.705997 79.453178,56.092522 80.657867,56.084492 
	C80.997459,56.565090 80.995636,56.975693 80.990021,57.694233 
	C80.299835,58.601032 79.523270,58.770840 78.319229,58.238575 
z"/>
<path fill="#F0B55A" opacity="1.000000" stroke="none" 
	d="
M45.342972,64.007576 
	C45.037220,63.651627 45.022629,63.174938 45.000458,62.340099 
	C44.992878,61.981953 45.008286,61.500275 45.016426,61.259769 
	C45.024570,61.019264 45.511562,61.006203 45.755058,60.999847 
	C46.416225,60.602589 46.905083,60.465527 47.780838,60.828804 
	C47.275761,62.012558 46.454948,62.949699 45.342972,64.007576 
z"/>
<path fill="#F3B14E" opacity="1.000000" stroke="none" 
	d="
M129.057465,51.600151 
	C127.793571,51.688637 127.138039,50.905037 127.087151,49.256004 
	C128.076935,49.414387 128.948502,50.017677 129.057465,51.600151 
z"/>
<path fill="#F3B04C" opacity="1.000000" stroke="none" 
	d="
M163.422363,97.065201 
	C163.081879,96.304359 163.072556,95.521454 163.086197,94.347260 
	C163.576035,94.932411 165.840836,95.533592 163.422363,97.065201 
z"/>
<path fill="#F3B14E" opacity="1.000000" stroke="none" 
	d="
M129.991852,53.630390 
	C130.024582,54.392433 130.049316,54.846970 130.059784,55.642574 
	C129.129959,55.046188 128.999191,53.874687 129.066223,52.286179 
	C129.774872,52.136818 129.985825,52.661198 129.991852,53.630390 
z"/>
<path fill="#F4B04C" opacity="1.000000" stroke="none" 
	d="
M91.424690,64.951851 
	C90.409248,64.339470 90.283638,63.675652 91.601440,63.081398 
	C91.801003,63.615044 91.759323,64.222206 91.424690,64.951851 
z"/>
<path fill="#EFB45D" opacity="1.000000" stroke="none" 
	d="
M40.380104,68.953949 
	C39.395100,67.511490 40.580006,67.390160 41.825226,67.087982 
	C41.616337,67.662605 41.136440,68.260414 40.380104,68.953949 
z"/>
<path fill="#E8B35E" opacity="1.000000" stroke="none" 
	d="
M88.212280,92.716766 
	C87.135246,92.455597 86.279060,91.917534 85.238220,91.140671 
	C85.793716,90.943329 86.533852,90.984772 87.637833,91.100746 
	C88.349480,91.527206 88.493309,91.948738 88.212280,92.716766 
z"/>
<path fill="#F4B04C" opacity="1.000000" stroke="none" 
	d="
M88.327507,92.996269 
	C87.994446,92.589485 87.997452,92.185310 88.001068,91.478203 
	C88.447021,91.125954 88.892365,91.076637 89.668579,91.098030 
	C90.000076,91.574867 90.000717,91.980988 90.004135,92.692017 
	C89.559128,92.997574 89.111351,92.998222 88.327507,92.996269 
z"/>
<path fill="#F3B14E" opacity="1.000000" stroke="none" 
	d="
M107.072006,46.371643 
	C107.796028,45.380913 108.441277,45.469196 108.893066,46.806404 
	C108.358002,46.926014 107.773109,46.790241 107.072006,46.371643 
z"/>
<path fill="#EABC74" opacity="1.000000" stroke="none" 
	d="
M193.942993,92.603134 
	C194.044769,93.331345 194.073792,93.792915 194.112991,94.602112 
	C193.729218,94.220291 193.335251,93.490837 192.900589,92.441025 
	C193.196671,92.192612 193.533463,92.264549 193.942993,92.603134 
z"/>
<path fill="#F3B14E" opacity="1.000000" stroke="none" 
	d="
M73.635361,40.935753 
	C73.191544,41.236111 72.398582,41.581215 71.270416,41.926186 
	C71.363716,40.727776 72.404068,41.050819 73.635361,40.935753 
z"/>
<path fill="#EFB45D" opacity="1.000000" stroke="none" 
	d="
M48.343525,60.992619 
	C47.630554,61.055161 47.164536,61.034904 46.348541,61.004074 
	C46.813251,60.677185 47.627949,60.360874 48.780804,60.042961 
	C48.942806,60.330849 48.766644,60.620335 48.343525,60.992619 
z"/>
<path fill="#F3B14E" opacity="1.000000" stroke="none" 
	d="
M126.982529,48.648308 
	C126.235909,48.770115 125.534439,48.411869 125.140678,47.235607 
	C125.669159,47.414360 126.272400,47.894081 126.982529,48.648308 
z"/>
<path fill="#F0B55A" opacity="1.000000" stroke="none" 
	d="
M62.690655,44.950241 
	C62.511940,45.221153 62.015594,45.538200 61.223488,45.902985 
	C61.134251,45.215775 61.693916,45.015636 62.690655,44.950241 
z"/>
<path fill="#F0B55A" opacity="1.000000" stroke="none" 
	d="
M60.685188,45.953049 
	C60.506714,46.225483 60.011532,46.542034 59.220367,46.905544 
	C59.136688,46.227348 59.691246,46.019547 60.685188,45.953049 
z"/>
<path fill="#F3B14E" opacity="1.000000" stroke="none" 
	d="
M124.947266,46.644249 
	C124.530785,46.731739 123.998955,46.532814 123.271469,46.124954 
	C123.661186,46.063290 124.246559,46.210564 124.947266,46.644249 
z"/>
<path fill="#F0B55A" opacity="1.000000" stroke="none" 
	d="
M58.990505,47.731934 
	C58.533169,47.996284 58.073380,47.990433 57.268944,47.964432 
	C57.127815,47.236229 57.658615,47.012615 58.639458,46.959011 
	C58.962734,47.102329 58.975391,47.282028 58.990505,47.731934 
z"/>
<path fill="#F3B14E" opacity="1.000000" stroke="none" 
	d="
M64.642822,43.933174 
	C64.473045,44.201485 63.993824,44.517567 63.224167,44.878922 
	C63.121422,44.196003 63.664730,43.995483 64.642822,43.933174 
z"/>
<path fill="#F3B14E" opacity="1.000000" stroke="none" 
	d="
M109.978683,39.662186 
	C109.567001,39.808334 109.028038,39.660854 108.260254,39.348396 
	C108.638092,39.245129 109.244743,39.306839 109.978683,39.662186 
z"/>
<path fill="#F2B254" opacity="1.000000" stroke="none" 
	d="
M41.640514,58.936935 
	C41.459774,59.212109 40.964294,59.542458 40.166828,59.913483 
	C40.106506,59.260956 40.633121,59.000458 41.640514,58.936935 
z"/>
<path fill="#F3B14E" opacity="1.000000" stroke="none" 
	d="
M116.959503,92.650459 
	C116.536591,92.732948 115.987755,92.524757 115.228485,92.103027 
	C115.623215,92.046249 116.228401,92.203011 116.959503,92.650459 
z"/>
<path fill="#F4B04C" opacity="1.000000" stroke="none" 
	d="
M88.727821,54.156807 
	C88.791122,54.408829 88.576546,54.593819 88.147697,54.846916 
	C88.132584,54.671249 88.304756,54.396172 88.727821,54.156807 
z"/>
<path fill="#F3B04C" opacity="1.000000" stroke="none" 
	d="
M131.726288,96.133774 
	C131.786301,96.394608 131.556213,96.586731 131.097565,96.848785 
	C131.086258,96.667915 131.275314,96.383369 131.726288,96.133774 
z"/>
<path fill="#F3B14E" opacity="1.000000" stroke="none" 
	d="
M114.998032,91.684441 
	C114.884071,91.946968 114.683289,91.957176 114.181061,91.960526 
	C114.095047,91.525795 114.193733,90.866982 114.998032,91.684441 
z"/>
<path fill="#F3B14E" opacity="1.000000" stroke="none" 
	d="
M122.011665,44.674332 
	C121.814705,44.814407 121.563278,44.664108 121.181610,44.314598 
	C121.328056,44.247150 121.630005,44.336670 122.011665,44.674332 
z"/>
<path fill="#FAE3B0" opacity="1.000000" stroke="none" 
	d="
M29.204803,94.002609 
	C29.218822,93.907272 29.404490,93.682983 29.667835,93.238434 
	C29.698448,93.366165 29.575428,93.651329 29.204803,94.002609 
z"/>
<path fill="#F3B14E" opacity="1.000000" stroke="none" 
	d="
M120.019272,43.693050 
	C119.812576,43.782692 119.555710,43.575108 119.183899,43.123962 
	C119.333244,43.096470 119.633293,43.268280 120.019272,43.693050 
z"/>
<path fill="#F3B14E" opacity="1.000000" stroke="none" 
	d="
M118.992439,42.702499 
	C118.801384,42.828732 118.556183,42.673923 118.179520,42.329979 
	C118.322968,42.268986 118.619705,42.362530 118.992439,42.702499 
z"/>
<path fill="#F3B14E" opacity="1.000000" stroke="none" 
	d="
M118.019135,93.706604 
	C117.850266,93.743927 117.590683,93.525978 117.180252,93.101440 
	C117.329071,93.080345 117.628746,93.265839 118.019135,93.706604 
z"/>
<path fill="#F3B14E" opacity="1.000000" stroke="none" 
	d="
M87.574829,38.081039 
	C87.799171,38.021210 87.923630,38.503239 87.972305,38.747318 
	C87.835831,38.984665 87.650681,38.977936 87.188156,38.954300 
	C86.938469,38.606190 87.085030,38.340679 87.574829,38.081039 
z"/>
<path fill="#F2B151" opacity="1.000000" stroke="none" 
	d="
M149.037109,163.701630 
	C148.869537,163.742218 148.603027,163.526428 148.177216,163.107178 
	C148.324646,163.084244 148.631424,163.264755 149.037109,163.701630 
z"/>
<path fill="#FBAD40" opacity="1.000000" stroke="none" 
	d="
M81.096680,153.551544 
	C79.562752,153.863800 78.190887,153.863693 76.406380,153.865021 
	C72.828545,150.869278 69.179619,151.959244 65.255356,152.881744 
	C64.196587,153.076965 63.462307,153.024323 62.359863,152.941925 
	C55.399063,150.899902 48.668743,152.512680 40.432011,152.161499 
	C46.207870,149.380753 52.120857,149.883041 55.618835,145.059464 
	C57.405594,144.007019 58.876030,143.075241 60.673309,142.071716 
	C61.577885,142.685455 61.737370,143.456360 61.239166,144.657562 
	C58.952557,145.770645 57.758259,147.714355 59.062160,149.158966 
	C60.477074,150.726547 62.969990,150.597046 64.859146,148.327118 
	C74.519508,151.623795 84.297028,150.238785 93.964355,149.121460 
	C96.402306,148.839691 96.954353,149.119553 96.991547,151.603302 
	C91.742279,152.274109 86.432716,151.926682 81.096680,153.551544 
z"/>
<path fill="#F4B04C" opacity="1.000000" stroke="none" 
	d="
M85.993950,73.010651 
	C84.683411,73.413521 83.074287,74.643127 82.386299,72.474449 
	C81.797935,70.619850 83.247192,69.272621 84.709053,68.723892 
	C87.001465,67.863411 86.770805,69.904312 86.999268,71.626862 
	C87.009499,71.990517 86.997475,72.002571 86.992279,72.007843 
	C86.826180,72.173714 86.665276,72.334312 86.263420,72.736221 
	C86.022469,72.977531 86.003021,72.998665 85.993950,73.010651 
z"/>
<path fill="#FCAD39" opacity="1.000000" stroke="none" 
	d="
M77.598915,57.988506 
	C78.736305,57.991390 79.486702,57.998322 80.611664,58.003708 
	C80.324577,60.282066 78.393791,59.902199 76.320969,60.072498 
	C74.901871,59.896793 72.890427,60.240921 73.128166,59.148415 
	C73.574745,57.096249 75.786530,58.325844 77.598915,57.988506 
z"/>
<path fill="#F4B04C" opacity="1.000000" stroke="none" 
	d="
M72.503716,102.767082 
	C74.716171,103.890022 73.981407,105.429497 73.310143,107.474396 
	C71.652977,105.945183 70.790596,104.706024 72.503716,102.767082 
z"/>
<path fill="#F4B04C" opacity="1.000000" stroke="none" 
	d="
M73.233490,116.812164 
	C73.875893,118.241508 73.592728,119.311462 72.504799,119.963051 
	C71.799904,120.385246 71.251770,119.859848 71.195206,119.120110 
	C71.095551,117.816811 70.932968,116.371529 73.233490,116.812164 
z"/>
<path fill="#F4B04C" opacity="1.000000" stroke="none" 
	d="
M90.565056,58.358528 
	C90.441002,59.326931 89.980263,59.757195 89.279297,59.505314 
	C88.998436,59.404388 88.647781,58.714462 88.750679,58.470634 
	C89.108101,57.623726 89.732033,57.277657 90.565056,58.358528 
z"/>
<path fill="#F4B04C" opacity="1.000000" stroke="none" 
	d="
M61.121532,132.194702 
	C60.953575,131.942993 60.977436,131.471786 60.988270,131.236145 
	C62.143982,131.211121 63.989239,131.020752 63.405952,132.833817 
	C62.988041,134.132812 61.939575,133.071274 61.121532,132.194702 
z"/>
<path fill="#F4B04C" opacity="1.000000" stroke="none" 
	d="
M105.194908,89.187439 
	C105.013306,88.288094 105.041130,87.584900 105.109406,86.535614 
	C106.919815,86.542252 106.944382,87.925240 106.986633,89.648788 
	C106.460228,89.793777 105.932274,89.588676 105.194908,89.187439 
z"/>
<path fill="#F4B04C" opacity="1.000000" stroke="none" 
	d="
M61.318001,144.979279 
	C61.003994,144.250900 61.002537,143.500595 61.000618,142.375137 
	C61.972874,142.233612 63.121460,142.392334 63.287979,143.579041 
	C63.439110,144.656082 62.466553,144.827179 61.318001,144.979279 
z"/>
<path fill="#F4B04C" opacity="1.000000" stroke="none" 
	d="
M100.229095,90.182816 
	C100.781754,89.675453 101.563965,89.354134 102.672668,89.018845 
	C102.624054,90.338188 101.964516,91.141731 100.229095,90.182816 
z"/>
<path fill="#F4B04C" opacity="1.000000" stroke="none" 
	d="
M77.064133,66.236122 
	C76.986839,65.987053 76.989250,65.492920 76.990768,65.245819 
	C77.901871,65.302620 79.015274,65.667542 78.464478,66.855453 
	C78.071648,67.702660 77.465675,67.093033 77.064133,66.236122 
z"/>
<path fill="#F4B04C" opacity="1.000000" stroke="none" 
	d="
M82.940231,63.613335 
	C83.610786,63.307751 84.084984,63.375118 84.182892,63.971176 
	C84.212509,64.151466 83.858742,64.549240 83.637436,64.585732 
	C83.090256,64.675964 82.729141,64.401283 82.940231,63.613335 
z"/>
<path fill="#F4B04C" opacity="1.000000" stroke="none" 
	d="
M69.227989,112.291061 
	C68.953773,112.235924 68.789093,112.079704 68.624420,111.923477 
	C68.718452,111.837151 68.812492,111.750824 68.906540,111.664505 
	C69.050201,111.839668 69.193863,112.014824 69.227989,112.291061 
z"/>
<path fill="#F4B04C" opacity="1.000000" stroke="none" 
	d="
M67.708893,128.227966 
	C67.764038,127.953751 67.920265,127.789070 68.076492,127.624390 
	C68.162819,127.718437 68.249153,127.812485 68.335487,127.906525 
	C68.160316,128.050201 67.985146,128.193863 67.708893,128.227966 
z"/>
<path fill="#F4B04C" opacity="1.000000" stroke="none" 
	d="
M83.228012,82.291084 
	C82.953773,82.235939 82.789093,82.079704 82.624405,81.923470 
	C82.718452,81.837135 82.812500,81.750801 82.906548,81.664467 
	C83.050217,81.839645 83.193893,82.014816 83.228012,82.291084 
z"/>
<path fill="#F4B04C" opacity="1.000000" stroke="none" 
	d="
M77.493027,80.491165 
	C77.513252,80.483543 77.472801,80.498787 77.493027,80.491165 
z"/>
<path fill="#F3B14E" opacity="1.000000" stroke="none" 
	d="
M90.330643,39.240776 
	C93.210091,37.208054 96.662216,38.283989 100.443787,38.217403 
	C97.558716,39.456722 94.250725,40.740208 90.330643,39.240776 
z"/>
<path fill="#F3B14E" opacity="1.000000" stroke="none" 
	d="
M130.025177,56.433090 
	C131.656189,59.379669 130.982056,62.894638 130.294556,66.735428 
	C130.049637,63.678947 130.032303,60.286648 130.025177,56.433090 
z"/>
<path fill="#F3B14E" opacity="1.000000" stroke="none" 
	d="
M119.015106,75.778969 
	C119.291229,76.203812 119.350967,76.622162 119.410706,77.040504 
	C119.129402,77.032822 118.848091,77.025139 118.566788,77.017456 
	C118.644104,76.602463 118.721413,76.187462 119.015106,75.778969 
z"/>
<path fill="#F3B14E" opacity="1.000000" stroke="none" 
	d="
M118.452911,64.564850 
	C118.270592,63.530678 118.239304,62.230408 118.249557,60.543358 
	C119.112358,61.483154 119.153305,62.868664 118.452911,64.564850 
z"/>
<path fill="#F3B14E" opacity="1.000000" stroke="none" 
	d="
M116.999229,50.999138 
	C117.236191,50.594494 117.462852,50.183132 117.726837,49.797310 
	C117.756981,49.753246 118.094093,49.814941 118.122856,49.890659 
	C118.360718,50.516792 117.889168,50.697384 117.225708,50.944435 
	C117.001762,51.001522 117.000000,51.000000 116.999229,50.999138 
z"/>
<path fill="#F3B14E" opacity="1.000000" stroke="none" 
	d="
M128.371155,64.802116 
	C128.389404,64.537193 128.510620,64.353630 128.631836,64.170059 
	C128.579269,64.407867 128.526688,64.645668 128.371155,64.802116 
z"/>
<path fill="#F3B14E" opacity="1.000000" stroke="none" 
	d="
M129.961792,67.171814 
	C130.098251,67.459816 130.052689,67.886093 129.888611,68.611847 
	C129.369446,68.375145 129.256577,67.840698 129.961792,67.171814 
z"/>
<path fill="#EABC74" opacity="1.000000" stroke="none" 
	d="
M194.067261,95.390854 
	C196.064224,98.865997 194.818787,103.010132 194.764923,107.518051 
	C193.405289,103.981659 194.329376,99.887115 194.067261,95.390854 
z"/>
<path fill="#F2B254" opacity="1.000000" stroke="none" 
	d="
M33.034855,114.949142 
	C33.023453,115.236946 33.028400,115.567787 32.956936,115.881203 
	C32.641933,117.262665 32.677338,119.049530 30.734152,119.110413 
	C29.795355,119.139824 28.803967,118.145981 28.797180,117.190613 
	C28.779861,114.752304 30.858603,115.241577 32.720451,114.962433 
	C33.086060,114.946503 33.016029,114.984161 33.034855,114.949142 
z"/>
<path fill="#F2B254" opacity="1.000000" stroke="none" 
	d="
M38.368694,127.084686 
	C37.571198,127.254593 37.298626,126.886681 37.412212,126.335640 
	C37.457474,126.116043 37.875465,125.779037 38.055786,125.817154 
	C38.647747,125.942284 38.706577,126.420128 38.368694,127.084686 
z"/>
<path fill="#F4B04C" opacity="1.000000" stroke="none" 
	d="
M145.988434,99.533562 
	C144.932358,99.889114 143.865891,99.879578 142.400574,99.837753 
	C142.113312,98.424538 141.822464,96.654984 143.688019,96.363899 
	C145.666061,96.055252 145.873398,97.682869 145.988434,99.533562 
z"/>
<path fill="#F4B04C" opacity="1.000000" stroke="none" 
	d="
M148.507019,96.509048 
	C148.486694,96.516716 148.527344,96.501373 148.507019,96.509048 
z"/>
<path fill="#F3B04C" opacity="1.000000" stroke="none" 
	d="
M86.206238,72.840988 
	C86.187637,72.717850 86.386696,72.487457 86.803368,72.149734 
	C86.821548,72.272469 86.622520,72.502914 86.206238,72.840988 
z"/>
</svg>